<svg xmlns="http://www.w3.org/2000/svg" width="128" height="128" viewBox="0 0 128 128">
  <rect x="4" y="4" width="120" height="120" rx="24" fill="#1e3a5f" stroke="#3b82f6" stroke-width="8"/>
  <!-- gauge arc -->
  <path d="M 34 88 A 38 38 0 1 1 94 88" fill="none" stroke="#334155" stroke-width="8" stroke-linecap="round"/>
  <path d="M 34 88 A 38 38 0 1 1 88 56" fill="none" stroke="#22c55e" stroke-width="8" stroke-linecap="round"/>
  <!-- needle -->
  <line x1="64" y1="86" x2="78" y2="50" stroke="#f59e0b" stroke-width="4" stroke-linecap="round"/>
  <circle cx="64" cy="86" r="5" fill="#f59e0b"/>
  <!-- burn flame -->
  <path d="M 64 20 Q 70 30 66 38 Q 72 32 68 24 Q 76 34 70 42 Q 64 48 58 42 Q 52 34 60 24 Q 56 32 62 38 Q 58 30 64 20Z" fill="#ef4444" opacity="0.85"/>
</svg>
